<svg width="55" height="35" viewBox="0 0 55 35" fill="none" xmlns="http://www.w3.org/2000/svg">
<path d="M53.0979 16.3119C52.6346 15.6739 41.5964 0.691406 27.4987 0.691406C13.4009 0.691406 2.36215 15.6739 1.89938 16.3113C1.46062 16.9165 1.46062 17.7373 1.89938 18.3426C2.36215 18.9805 13.4009 33.963 27.4987 33.963C41.5964 33.963 52.6346 18.9804 53.0979 18.3431C53.5373 17.738 53.5373 16.9165 53.0979 16.3119ZM27.4987 30.5212C17.1141 30.5212 8.12003 20.577 5.45758 17.326C8.11659 14.0723 17.0918 4.13328 27.4987 4.13328C37.8827 4.13328 46.8762 14.0757 49.5397 17.3284C46.8807 20.582 37.9055 30.5212 27.4987 30.5212Z" fill="white"/>
<g clip-path="url(#clip0)">
<path d="M32.1649 16.1672H31.8893V15.0639C31.8893 13.0231 29.9963 11.3184 27.6302 11.282C27.5655 11.281 27.4363 11.281 27.3717 11.282C25.0055 11.3184 23.1125 13.0231 23.1125 15.0639V16.1672H22.8369C22.4122 16.1672 22.0658 16.5421 22.0658 17.0051V22.5391C22.0658 23.0016 22.4122 23.38 22.8369 23.38H32.1649C32.5896 23.38 32.9361 23.0016 32.9361 22.5391V17.0051C32.9361 16.5422 32.5896 16.1672 32.1649 16.1672ZM28.3748 19.7665V21.4387C28.3748 21.6302 28.1874 21.7922 27.9634 21.7922H27.0384C26.8144 21.7922 26.627 21.6302 26.627 21.4387V19.7665C26.4098 19.5836 26.2833 19.3306 26.2833 19.0508C26.2833 18.5205 26.7625 18.0648 27.3717 18.0437C27.4363 18.0415 27.5656 18.0415 27.6302 18.0437C28.2394 18.0648 28.7186 18.5205 28.7186 19.0508C28.7186 19.3306 28.5921 19.5836 28.3748 19.7665ZM30.073 16.1672H27.6302H27.3717H24.9288V15.0639C24.9288 13.8482 26.0837 12.8431 27.5009 12.8431C28.9182 12.8431 30.073 13.8482 30.073 15.0639V16.1672H30.073Z" fill="white"/>
</g>
<defs>
<clipPath id="clip0">
<rect width="14.1429" height="12.0988" fill="white" transform="translate(20.4297 11.2812)"/>
</clipPath>
</defs>
</svg>
