<svg width="168" height="48" viewBox="0 0 168 48" fill="none" xmlns="http://www.w3.org/2000/svg">
<g clip-path="url(#clip0)">
<path d="M53.5856 29.6118H50.957V17.0497H59.1823V19.2174H53.5856V22.5864H58.6949V24.667H53.5856V29.6118Z" fill="white"/>
<path d="M63.3689 19.1042V23.1087H65.632C66.2935 23.1087 66.807 22.9317 67.1726 22.5777C67.544 22.2237 67.7296 21.7333 67.7296 21.1065C67.7296 20.4971 67.5382 20.0125 67.1552 19.6526C66.7722 19.287 66.2558 19.1042 65.6059 19.1042H63.3689ZM63.3689 25.0152V29.6118H60.7403V17.0497H65.8844C67.3177 17.0497 68.4318 17.4066 69.2267 18.1205C70.0275 18.8285 70.4279 19.8064 70.4279 21.0542C70.4279 21.8725 70.2248 22.6038 69.8186 23.248C69.4182 23.8864 68.8612 24.3449 68.1474 24.6235L70.7935 29.6118H67.8167L65.4753 25.0152H63.3689Z" fill="white"/>
<path d="M74.7886 29.6118H72.16V17.0497H74.7886V29.6118Z" fill="white"/>
<path d="M85.1986 27.4354V29.6118H76.8776V17.0497H85.1986V19.2174H79.5062V22.2469H84.8766V24.2666H79.5062V27.4354H85.1986Z" fill="white"/>
<path d="M89.6116 29.6118H87.0961V17.0497H89.2895L95.1561 25.2329H95.2257V17.0497H97.7412V29.6118H95.5651L89.6899 21.385H89.6116V29.6118Z" fill="white"/>
<path d="M99.8388 17.0497H104.635C106.526 17.0497 107.997 17.5923 109.048 18.6776C110.098 19.7629 110.623 21.298 110.623 23.2828C110.623 25.2735 110.095 26.826 109.039 27.9403C107.989 29.0546 106.521 29.6118 104.635 29.6118H99.8388V17.0497ZM102.467 19.2174V27.4354H104.321C105.499 27.4354 106.396 27.0843 107.011 26.382C107.632 25.674 107.942 24.6438 107.942 23.2915C107.942 21.9799 107.629 20.973 107.002 20.2707C106.376 19.5685 105.482 19.2174 104.321 19.2174H102.467Z" fill="white"/>
<path d="M111.85 26.0338H114.383C114.441 26.5445 114.711 26.9595 115.193 27.2787C115.68 27.5921 116.275 27.7488 116.977 27.7488C117.673 27.7488 118.239 27.6008 118.674 27.3048C119.115 27.003 119.336 26.62 119.336 26.1557C119.336 25.7494 119.173 25.4215 118.848 25.1719C118.523 24.9224 117.981 24.7135 117.221 24.5451L115.584 24.1882C113.281 23.6949 112.129 22.5255 112.129 20.6799C112.129 19.5308 112.576 18.6022 113.469 17.8941C114.369 17.1861 115.523 16.832 116.934 16.832C118.384 16.832 119.542 17.1774 120.406 17.868C121.271 18.5528 121.715 19.4669 121.738 20.6102H119.275C119.234 20.0821 118.999 19.6671 118.57 19.3653C118.146 19.0578 117.604 18.904 116.942 18.904C116.292 18.904 115.767 19.0461 115.367 19.3305C114.972 19.6149 114.775 19.9892 114.775 20.4535C114.775 20.8366 114.935 21.1471 115.254 21.385C115.579 21.623 116.104 21.8261 116.829 21.9944L118.352 22.3165C119.611 22.5835 120.528 23.0014 121.103 23.5701C121.677 24.1331 121.964 24.8934 121.964 25.851C121.964 27.0698 121.506 28.039 120.589 28.7586C119.672 29.4725 118.434 29.8294 116.873 29.8294C115.358 29.8294 114.151 29.4928 113.252 28.8196C112.358 28.1405 111.891 27.2119 111.85 26.0338Z" fill="white"/>
<path d="M124.819 18.5818C125.91 17.4153 127.387 16.832 129.25 16.832C131.112 16.832 132.586 17.4153 133.671 18.5818C134.762 19.7484 135.308 21.3328 135.308 23.3351C135.308 25.3316 134.762 26.9131 133.671 28.0796C132.581 29.2461 131.107 29.8294 129.25 29.8294C127.387 29.8294 125.91 29.2461 124.819 28.0796C123.734 26.9131 123.192 25.3316 123.192 23.3351C123.192 21.3328 123.734 19.7484 124.819 18.5818ZM131.704 20.1924C131.095 19.4147 130.277 19.0258 129.25 19.0258C128.223 19.0258 127.402 19.4147 126.787 20.1924C126.177 20.9701 125.873 22.0176 125.873 23.3351C125.873 24.6467 126.177 25.6914 126.787 26.4691C127.396 27.241 128.217 27.6269 129.25 27.6269C130.277 27.6269 131.095 27.241 131.704 26.4691C132.314 25.6914 132.618 24.6467 132.618 23.3351C132.618 22.0176 132.314 20.9701 131.704 20.1924Z" fill="white"/>
<path d="M139.521 29.6118H137.005V17.0497H139.198L145.065 25.2329H145.135V17.0497H147.65V29.6118H145.474L139.599 21.385H139.521V29.6118Z" fill="white"/>
<path d="M157.869 27.4354V29.6118H149.748V17.0497H152.376V27.4354H157.869Z" fill="white"/>
<path d="M163.622 29.6118H160.993V24.9195L156.624 17.0497H159.488L162.299 22.4123H162.36L165.18 17.0497H168L163.622 24.9195V29.6118Z" fill="white"/>
<path d="M35.2789 22.6184C34.9711 22.1866 27.6371 12.0469 18.2702 12.0469C8.90341 12.0469 1.56908 22.1866 1.26161 22.618C0.970088 23.0276 0.970088 23.5831 1.26161 23.9927C1.56908 24.4244 8.90341 34.5642 18.2702 34.5642C27.6371 34.5642 34.9711 24.4244 35.2789 23.993C35.5708 23.5835 35.5708 23.0276 35.2789 22.6184ZM18.2702 32.2348C11.3706 32.2348 5.39472 25.5049 3.62574 23.3047C5.39243 21.1027 11.3558 14.3762 18.2702 14.3762C25.1696 14.3762 31.145 21.105 32.9147 23.3063C31.148 25.5083 25.1847 32.2348 18.2702 32.2348Z" fill="white"/>
<g clip-path="url(#clip1)">
<path d="M21.3702 22.5215H21.1871V21.7748C21.1871 20.3937 19.9293 19.24 18.3572 19.2153C18.3143 19.2147 18.2284 19.2147 18.1855 19.2153C16.6134 19.24 15.3556 20.3937 15.3556 21.7748V22.5215H15.1725C14.8903 22.5215 14.6602 22.7753 14.6602 23.0886V26.8339C14.6602 27.1469 14.8903 27.403 15.1725 27.403H21.3702C21.6524 27.403 21.8826 27.1469 21.8826 26.8339V23.0886C21.8826 22.7753 21.6524 22.5215 21.3702 22.5215ZM18.852 24.9574V26.0891C18.852 26.2187 18.7275 26.3284 18.5787 26.3284H17.9641C17.8152 26.3284 17.6907 26.2187 17.6907 26.0891V24.9574C17.5464 24.8336 17.4624 24.6624 17.4624 24.473C17.4624 24.1141 17.7807 23.8057 18.1855 23.7915C18.2284 23.79 18.3144 23.79 18.3573 23.7915C18.7621 23.8057 19.0804 24.1141 19.0804 24.473C19.0804 24.6624 18.9964 24.8336 18.852 24.9574ZM19.9803 22.5215H18.3572H18.1855H16.5624V21.7748C16.5624 20.9521 17.3297 20.2719 18.2714 20.2719C19.213 20.2719 19.9803 20.9521 19.9803 21.7748V22.5215H19.9803Z" fill="white"/>
</g>
</g>
<defs>
<clipPath id="clip0">
<rect width="168" height="48" fill="white"/>
</clipPath>
<clipPath id="clip1">
<rect width="9.39678" height="8.18811" fill="white" transform="translate(13.5742 19.2148)"/>
</clipPath>
</defs>
</svg>
