<svg width="38" height="38" viewBox="0 0 38 38" fill="none" xmlns="http://www.w3.org/2000/svg">
<circle cx="19" cy="19" r="19" fill="#4A67FF" fill-opacity="0.1"/>
<g clip-path="url(#clip0)">
<path d="M21.1812 19.0005L25.271 14.9108C25.7228 14.4589 25.7228 13.7263 25.271 13.2751L24.7257 12.7299C24.2737 12.2779 23.5411 12.2779 23.0899 12.7299L19.0003 16.8195L14.9105 12.729C14.4586 12.2772 13.726 12.2772 13.2749 12.729L12.7288 13.2743C12.2769 13.7263 12.2769 14.4589 12.7288 14.9101L16.8193 19.0005L12.7296 23.0902C12.2776 23.5422 12.2776 24.2748 12.7296 24.726L13.2749 25.2712C13.7267 25.7231 14.4594 25.7231 14.9105 25.2712L19.0003 21.1814L23.0899 25.2712C23.542 25.7231 24.2746 25.7231 24.7257 25.2712L25.271 24.726C25.7228 24.274 25.7228 23.5414 25.271 23.0902L21.1812 19.0005Z" fill="white"/>
</g>
<defs>
<clipPath id="clip0">
<rect width="13.22" height="13.22" fill="white" transform="translate(12.3899 12.3901)"/>
</clipPath>
</defs>
</svg>
