<svg width="35" height="35" viewBox="0 0 35 35" fill="none" xmlns="http://www.w3.org/2000/svg">
<g clip-path="url(#clip0)">
<path fill-rule="evenodd" clip-rule="evenodd" d="M17.4322 1.48674e-05C13.9949 0.00904094 10.6372 1.04781 7.78365 2.98508C4.93006 4.92235 2.70855 7.67118 1.39982 10.8842C0.0910889 14.0973 -0.246136 17.6304 0.430756 21.0371C1.10765 24.4438 2.76828 27.5713 5.20283 30.0243C7.63737 32.4774 10.7366 34.1459 14.1089 34.8191C17.4811 35.4923 20.9751 35.14 24.1494 33.8066C27.3236 32.4732 30.0357 30.2187 31.9428 27.3278C33.85 24.4369 34.8667 21.0394 34.8645 17.5647C34.8555 12.8991 33.0142 8.42812 29.7454 5.13444C26.4765 1.84075 22.0476 -0.00604525 17.4322 1.48674e-05ZM17.4322 33.3147C14.3541 33.3072 11.3472 32.3777 8.79134 30.6437C6.23547 28.9096 4.24528 26.4488 3.07213 23.5721C1.89899 20.6953 1.59551 17.5317 2.20004 14.4806C2.80457 11.4296 4.28998 8.62816 6.46865 6.43005C8.64733 4.23194 11.4216 2.7358 14.4409 2.13059C17.4603 1.52539 20.5893 1.83827 23.4329 3.02971C26.2765 4.22116 28.7069 6.23773 30.4174 8.82472C32.1278 11.4117 33.0415 14.4531 33.043 17.5647C33.037 21.7446 31.3892 25.751 28.4618 28.703C25.5345 31.6551 21.5672 33.3111 17.4322 33.3071V33.3147Z" fill="white"/>
<path d="M24.6627 16.4329V14.9986C24.6619 14.1472 24.4923 13.3045 24.1639 12.5204C23.8356 11.7363 23.3551 11.0267 22.7508 10.4334C21.5295 9.21285 19.8807 8.52921 18.1632 8.53125H16.9965C15.2804 8.53022 13.6331 9.21378 12.4127 10.4334C11.8083 11.0263 11.3279 11.736 11.0001 12.5202C10.6723 13.3044 10.5038 14.1473 10.5046 14.9986V16.4329L9.69922 17.9014V20.0166C9.70065 20.9622 9.88917 21.898 10.2537 22.7689C10.6182 23.6399 11.1514 24.4283 11.8218 25.0878C13.1872 26.4413 15.024 27.1982 16.9363 27.1954H18.2347C20.1421 27.1958 21.9734 26.4389 23.3342 25.0878C24.0058 24.429 24.54 23.6408 24.9052 22.7698C25.2704 21.8988 25.4592 20.9626 25.4605 20.0166V17.9014L24.6627 16.4329ZM18.3401 22.9231V24.616C18.341 24.7402 18.3107 24.8625 18.2522 24.9716C18.1936 25.0807 18.1086 25.1731 18.0051 25.24H17.689C17.6516 25.2457 17.6135 25.2457 17.5761 25.24H17.5008C17.4696 25.2433 17.438 25.2433 17.4067 25.24H17.2637C17.1583 25.1716 17.0714 25.0776 17.0109 24.9667C16.9504 24.8557 16.9183 24.7313 16.9175 24.6046V22.9231C16.4813 22.7519 16.1185 22.4311 15.8926 22.0169C15.6668 21.6026 15.5921 21.1213 15.6818 20.657C15.7715 20.1928 16.0198 19.7752 16.3833 19.4773C16.7468 19.1794 17.2023 19.0202 17.6702 19.0275H17.7116C18.1795 19.0202 18.635 19.1794 18.9985 19.4773C19.3619 19.7752 19.6102 20.1928 19.6999 20.657C19.7896 21.1213 19.715 21.6026 19.4891 22.0169C19.2632 22.4311 18.9005 22.7519 18.4643 22.9231H18.3401ZM21.761 16.4785H13.4024V14.9986C13.4034 14.5282 13.4974 14.0626 13.679 13.6295C13.8606 13.1963 14.1262 12.8042 14.46 12.4764C15.1349 11.7997 16.046 11.4184 16.9965 11.415H18.1632C19.1139 11.418 20.0251 11.7993 20.6998 12.4764C21.0329 12.8047 21.298 13.1969 21.4795 13.63C21.6611 14.063 21.7555 14.5283 21.7573 14.9986L21.761 16.4785Z" fill="white"/>
</g>
<defs>
<clipPath id="clip0">
<rect width="35" height="35" fill="white"/>
</clipPath>
</defs>
</svg>
