<svg width="38" height="38" viewBox="0 0 38 38" fill="none" xmlns="http://www.w3.org/2000/svg">
<circle cx="19" cy="19" r="19" fill="#4A67FF"/>
<g clip-path="url(#clip0)">
<path d="M25.112 13.9656L24.758 13.6615C24.1706 13.1567 23.2878 13.2129 22.7691 13.7881L16.8486 20.3528L15.0615 18.8136C14.4746 18.3082 13.5917 18.3633 13.0724 18.9379L12.7595 19.2841C12.5057 19.5647 12.374 19.9349 12.3931 20.3131C12.4124 20.691 12.581 21.0458 12.8621 21.2995L16.138 24.2994C16.4216 24.5657 16.8018 24.7046 17.1903 24.684C17.5788 24.6634 17.942 24.4849 18.1958 24.19L25.2634 15.9779C25.5103 15.691 25.6331 15.3178 25.6046 14.9405C25.5762 14.5628 25.399 14.2122 25.112 13.9656Z" fill="white"/>
</g>
<defs>
<clipPath id="clip0">
<rect width="13.2174" height="13.2174" fill="white" transform="translate(12.3913 12.3911)"/>
</clipPath>
</defs>
</svg>
